<svg width="66" height="66" viewBox="0 0 66 66" fill="none" xmlns="http://www.w3.org/2000/svg">
<path fill-rule="evenodd" clip-rule="evenodd" d="M33 66L8.26109 53.6062L2.0625 0H63.9375L57.7379 53.6062L33 66Z" fill="#29A5D1"/>
<path fill-rule="evenodd" clip-rule="evenodd" d="M33 0V66L57.7379 53.6062L63.9375 0H33Z" fill="#208DB8"/>
<path d="M22.9413 37.1202L23.6424 42.9082L33.0002 47.643L42.4154 42.9082L43.5276 33.0278H14.1688L13.4082 26.5399L33.0002 16.4852H12.2386L11.3027 8.24207H54.6977L53.9382 15.023L34.9305 24.7272H52.7676L50.0779 48.2854L33.0002 56.8205L15.9227 48.2854L14.6363 37.1202H22.9413Z" fill="white"/>
<path fill-rule="evenodd" clip-rule="evenodd" d="M34.9302 24.7272L53.938 15.023L54.6975 8.24207H33V16.4852V33.0278H43.5274L42.4152 42.9082L33 47.643V56.8205L50.0776 48.2854L52.7674 24.7272H34.9302Z" fill="#D8D9D9"/>
</svg>
