<svg width="66" height="66" viewBox="0 0 66 66" fill="none" xmlns="http://www.w3.org/2000/svg">
<path d="M33.0771 33C33.0771 26.9249 38.002 22 44.0771 22C50.1522 22 55.0771 26.925 55.0771 33C55.0771 39.0752 50.1521 43.9999 44.0771 43.9999C38.0019 43.9999 33.0771 39.0751 33.0771 33Z" fill="#00BCFF"/>
<path d="M11.0771 55.0001C11.0771 48.925 16.002 44.0002 22.0771 44.0002L27.9391 40.9053L33.0771 44.0002V55.0001C33.0771 61.0754 28.1522 66.0001 22.0771 66.0001C16.002 66.0001 11.0771 61.0752 11.0771 55.0001Z" fill="#00CF7F"/>
<path d="M33.0774 0L27.0918 10.3989L33.0774 21.9999H43.9231C49.9983 21.9999 54.923 17.0751 54.923 11C54.923 4.92486 49.9982 0 43.9231 0H33.0774Z" fill="#FF7361"/>
<path d="M10.9229 11C10.9229 17.0751 15.8477 21.9999 21.9228 21.9999L27.758 24.2537L33.0771 21.9999V0H21.9227C15.8477 0 10.9229 4.92486 10.9229 11Z" fill="#FF4D12"/>
<path d="M11.0771 33C11.0771 39.0752 16.002 43.9999 22.0771 43.9999H33.0771V21.9999H22.0771C16.002 21.9999 11.0771 26.9249 11.0771 33Z" fill="#B659FF"/>
</svg>
