<svg width="66" height="66" viewBox="0 0 66 66" fill="none" xmlns="http://www.w3.org/2000/svg">
<path d="M3.86719 0L7.96651 57.7631L33.0257 66L58.0849 57.7631L62.1842 0H3.86719Z" fill="#FF7816"/>
<path d="M62.1839 0L58.0846 57.7631L33.0254 66V0H62.1839Z" fill="#FF4B00"/>
<path d="M51.2399 17.5312H22.584L23.2799 27.1992H50.5441L48.8809 50.6083L33.0254 55.9065L17.1699 50.6083L16.6286 42.7969H24.363L24.5176 44.9238L33.0254 47.7467L41.5332 44.9238L42.2291 34.9336H16.0485L14.2695 9.79688H51.7812L51.2399 17.5312Z" fill="#ECECF1"/>
<path d="M50.5441 27.1992L48.8809 50.6083L33.0254 55.9065V47.7467L41.5332 44.9238L42.2291 34.9336H33.0254V27.1992H50.5441Z" fill="#E2E2E7"/>
<path d="M51.7812 9.79688L51.2399 17.5312H33.0254V9.79688H51.7812Z" fill="#E2E2E7"/>
</svg>
