<svg width="137" height="22" viewBox="0 0 137 22" fill="none" xmlns="http://www.w3.org/2000/svg">
<path d="M1.83594 15.0977C1.42969 14.6523 1.09766 14.2266 0.839844 13.8203C0.582031 13.4141 0.453125 13.0898 0.453125 12.8477C0.453125 12.6055 0.578125 12.3359 0.828125 12.0391C1.08594 11.7344 1.42578 11.4062 1.84766 11.0547C2.26953 10.7031 2.75391 10.332 3.30078 9.94141C3.84766 9.55078 4.41016 9.16797 4.98828 8.79297C5.57422 8.41797 6.15625 8.0625 6.73438 7.72656C7.32031 7.38281 7.85938 7.08594 8.35156 6.83594C9.42188 6.27344 10.0898 5.99219 10.3555 5.99219C10.582 5.99219 10.8438 6.21875 11.1406 6.67188C11.2109 6.77344 11.2617 6.85547 11.293 6.91797C10.7227 7.18359 9.80078 7.76562 8.52734 8.66406C7.26172 9.55469 6.42188 10.1562 6.00781 10.4688C5.60156 10.7734 5.24219 11.0547 4.92969 11.3125C4.22656 11.8828 3.87891 12.2383 3.88672 12.3789C3.90234 12.5117 3.98438 12.6719 4.13281 12.8594C4.28125 13.0469 4.47656 13.2578 4.71875 13.4922C5.17188 13.9219 5.76562 14.4219 6.5 14.9922C7.24219 15.5547 8.08984 16.1641 9.04297 16.8203C9.01172 17.0625 8.83203 17.3633 8.50391 17.7227C7.90234 18.4023 7.47656 18.7422 7.22656 18.7422C6.97656 18.7422 6.625 18.6367 6.17188 18.4258C5.72656 18.207 5.25 17.9258 4.74219 17.582C4.23438 17.2305 3.72656 16.8398 3.21875 16.4102C2.71094 15.9727 2.25 15.5352 1.83594 15.0977ZM26.5625 0.0976562C27.1641 0.300781 27.4648 0.472656 27.4648 0.613281C27.4648 0.746094 27.3516 1.05078 27.125 1.52734C26.8984 1.99609 26.5859 2.58594 26.1875 3.29688C25.7891 4.00781 25.3242 4.8125 24.793 5.71094C24.2617 6.60156 23.6914 7.53906 23.082 8.52344C22.4805 9.50781 21.8516 10.5117 21.1953 11.5352C20.5469 12.5508 19.9023 13.5391 19.2617 14.5C18.6289 15.4531 18.0195 16.3516 17.4336 17.1953C16.8477 18.0391 16.3125 18.7734 15.8281 19.3984C14.7969 20.7578 14.1445 21.4375 13.8711 21.4375C13.4492 21.4375 12.9102 21.2031 12.2539 20.7344C12.082 20.6172 11.9609 20.5117 11.8906 20.418C13.1328 19.3164 15.7852 15.8906 19.8477 10.1406C22.3242 6.64062 24.0312 4.14844 24.9688 2.66406C25.9141 1.17188 26.4453 0.316406 26.5625 0.0976562ZM33.6523 11.5586C33.6523 11.0195 32.2266 9.36719 29.375 6.60156C29.5391 6.375 29.7188 6.21875 29.9141 6.13281C30.1094 6.03906 30.2578 5.99219 30.3594 5.99219C30.4609 5.99219 30.6328 6.05859 30.875 6.19141C31.125 6.32422 31.4102 6.50391 31.7305 6.73047C32.0586 6.95703 32.4102 7.22266 32.7852 7.52734C33.1602 7.83203 33.5352 8.15625 33.9102 8.5C34.2852 8.83594 34.6445 9.18359 34.9883 9.54297C35.332 9.89453 35.6367 10.2344 35.9023 10.5625C36.4883 11.2969 36.7812 11.8594 36.7812 12.25C36.7812 12.9688 35.4141 14.25 32.6797 16.0938C31.0156 17.2109 29.6016 18.0234 28.4375 18.5312C28.1016 18.6719 27.8438 18.7422 27.6641 18.7422C27.4922 18.7422 27.2969 18.668 27.0781 18.5195C26.8672 18.3633 26.6641 18.1758 26.4688 17.957C26.0859 17.5117 25.8164 17.0781 25.6602 16.6562C26.8867 16.0938 28.7773 15.0039 31.332 13.3867C32.8789 12.4102 33.6523 11.8008 33.6523 11.5586ZM53.87 1.672C54.926 1.672 55.79 1.832 56.462 2.152C57.15 2.456 57.758 2.816 58.286 3.232C58.606 3.472 58.846 3.504 59.006 3.328C59.182 3.136 59.302 2.696 59.366 2.008H59.918C59.886 2.616 59.862 3.352 59.846 4.216C59.83 5.064 59.822 6.2 59.822 7.624H59.27C59.158 6.92 59.046 6.344 58.934 5.896C58.838 5.448 58.702 5.064 58.526 4.744C58.366 4.424 58.142 4.112 57.854 3.808C57.39 3.232 56.822 2.816 56.15 2.56C55.478 2.304 54.766 2.176 54.014 2.176C53.198 2.176 52.478 2.384 51.854 2.8C51.23 3.2 50.702 3.776 50.27 4.528C49.854 5.28 49.534 6.168 49.31 7.192C49.086 8.216 48.974 9.336 48.974 10.552C48.974 11.8 49.094 12.936 49.334 13.96C49.574 14.968 49.918 15.84 50.366 16.576C50.83 17.296 51.382 17.856 52.022 18.256C52.678 18.64 53.406 18.832 54.206 18.832C54.862 18.832 55.542 18.704 56.246 18.448C56.95 18.176 57.51 17.768 57.926 17.224C58.374 16.744 58.678 16.208 58.838 15.616C59.014 15.008 59.158 14.184 59.27 13.144H59.822C59.822 14.616 59.83 15.808 59.846 16.72C59.862 17.616 59.886 18.376 59.918 19H59.366C59.302 18.312 59.19 17.88 59.03 17.704C58.886 17.528 58.638 17.552 58.286 17.776C57.694 18.192 57.062 18.56 56.39 18.88C55.734 19.184 54.886 19.336 53.846 19.336C52.262 19.336 50.878 18.992 49.694 18.304C48.51 17.616 47.59 16.624 46.934 15.328C46.278 14.032 45.95 12.472 45.95 10.648C45.95 8.856 46.286 7.288 46.958 5.944C47.646 4.6 48.582 3.552 49.766 2.8C50.95 2.048 52.318 1.672 53.87 1.672ZM69.5261 1.912L75.3821 16.984C75.6061 17.576 75.8621 17.976 76.1501 18.184C76.4541 18.392 76.7341 18.504 76.9901 18.52V19C76.6061 18.968 76.1501 18.952 75.6221 18.952C75.1101 18.936 74.5901 18.928 74.0621 18.928C73.3901 18.928 72.7661 18.936 72.1901 18.952C71.6141 18.952 71.1501 18.968 70.7981 19V18.52C71.6141 18.488 72.1261 18.352 72.3341 18.112C72.5581 17.856 72.5101 17.32 72.1901 16.504L67.8701 4.84L68.2541 4.408L64.2701 14.824C63.8861 15.784 63.7021 16.528 63.7181 17.056C63.7341 17.584 63.9181 17.96 64.2701 18.184C64.6381 18.392 65.1581 18.504 65.8301 18.52V19C65.3501 18.968 64.8621 18.952 64.3661 18.952C63.8861 18.936 63.4301 18.928 62.9981 18.928C62.6141 18.928 62.2701 18.936 61.9661 18.952C61.6781 18.952 61.4141 18.968 61.1741 19V18.52C61.5101 18.44 61.8461 18.24 62.1821 17.92C62.5181 17.6 62.8381 17.056 63.1421 16.288L68.7101 1.912C68.8381 1.912 68.9741 1.912 69.1181 1.912C69.2621 1.912 69.3981 1.912 69.5261 1.912ZM72.0461 12.088V12.568H64.8941L65.1341 12.088H72.0461ZM83.8798 2.008V2.488C83.3358 2.504 82.9198 2.568 82.6318 2.68C82.3598 2.776 82.1758 2.968 82.0798 3.256C81.9838 3.528 81.9358 3.96 81.9358 4.552V16.552C81.9358 17.096 81.9758 17.504 82.0558 17.776C82.1518 18.048 82.3278 18.232 82.5838 18.328C82.8558 18.408 83.2398 18.448 83.7358 18.448H85.2958C86.2238 18.448 86.9598 18.28 87.5038 17.944C88.0478 17.592 88.4638 17.064 88.7518 16.36C89.0398 15.656 89.2478 14.76 89.3758 13.672H89.9278C89.8798 14.184 89.8558 14.856 89.8558 15.688C89.8558 16.008 89.8638 16.48 89.8798 17.104C89.9118 17.712 89.9598 18.344 90.0238 19C89.2078 18.968 88.2878 18.952 87.2638 18.952C86.2398 18.936 85.3278 18.928 84.5278 18.928C84.0318 18.928 83.3678 18.928 82.5358 18.928C81.7198 18.928 80.8398 18.936 79.8958 18.952C78.9678 18.952 78.0958 18.968 77.2798 19V18.52C77.8238 18.488 78.2318 18.424 78.5038 18.328C78.7758 18.232 78.9518 18.04 79.0318 17.752C79.1278 17.464 79.1758 17.032 79.1758 16.456V4.552C79.1758 3.96 79.1278 3.528 79.0318 3.256C78.9518 2.968 78.7678 2.776 78.4798 2.68C78.2078 2.568 77.8078 2.504 77.2798 2.488V2.008C77.6478 2.024 78.1198 2.04 78.6958 2.056C79.2878 2.072 79.9198 2.08 80.5918 2.08C81.1998 2.08 81.7998 2.072 82.3918 2.056C82.9998 2.04 83.4958 2.024 83.8798 2.008ZM106.434 2.008V2.488C105.906 2.52 105.506 2.616 105.234 2.776C104.962 2.936 104.778 3.2 104.682 3.568C104.586 3.92 104.538 4.424 104.538 5.08V12.016C104.538 13.104 104.466 14.072 104.322 14.92C104.178 15.768 103.922 16.496 103.554 17.104C103.154 17.776 102.562 18.32 101.778 18.736C101.01 19.136 100.09 19.336 99.0178 19.336C98.2498 19.336 97.5058 19.248 96.7858 19.072C96.0658 18.896 95.4338 18.56 94.8898 18.064C94.4098 17.632 94.0338 17.16 93.7617 16.648C93.4898 16.136 93.3058 15.52 93.2098 14.8C93.1138 14.064 93.0658 13.16 93.0658 12.088V4.552C93.0658 3.96 93.0178 3.528 92.9218 3.256C92.8418 2.968 92.6658 2.776 92.3938 2.68C92.1218 2.568 91.7138 2.504 91.1698 2.488V2.008C91.5378 2.024 92.0098 2.04 92.5858 2.056C93.1778 2.072 93.8098 2.08 94.4818 2.08C95.0898 2.08 95.6898 2.072 96.2818 2.056C96.8898 2.04 97.3858 2.024 97.7698 2.008V2.488C97.2258 2.504 96.8098 2.568 96.5218 2.68C96.2498 2.776 96.0658 2.968 95.9698 3.256C95.8738 3.528 95.8258 3.96 95.8258 4.552V12.856C95.8258 13.944 95.9138 14.912 96.0898 15.76C96.2658 16.608 96.6098 17.28 97.1218 17.776C97.6498 18.256 98.4338 18.496 99.4738 18.496C100.658 18.496 101.57 18.232 102.21 17.704C102.866 17.16 103.322 16.424 103.578 15.496C103.85 14.552 103.986 13.48 103.986 12.28V5.176C103.986 4.488 103.922 3.96 103.794 3.592C103.666 3.224 103.442 2.96 103.122 2.8C102.802 2.624 102.346 2.52 101.754 2.488V2.008C102.058 2.024 102.45 2.04 102.93 2.056C103.41 2.072 103.85 2.08 104.25 2.08C104.666 2.08 105.066 2.072 105.45 2.056C105.85 2.04 106.178 2.024 106.434 2.008ZM120.248 2.008V2.488L111.128 18.448H115.112C115.784 18.448 116.368 18.368 116.864 18.208C117.376 18.032 117.8 17.768 118.136 17.416C118.488 17.048 118.768 16.56 118.976 15.952C119.184 15.344 119.328 14.6 119.408 13.72H119.96C119.912 14.232 119.888 14.904 119.888 15.736C119.888 16.056 119.896 16.52 119.912 17.128C119.944 17.736 119.992 18.36 120.056 19C119.176 18.968 118.176 18.952 117.056 18.952C115.952 18.936 114.96 18.928 114.08 18.928C113.104 18.928 112.08 18.936 111.008 18.952C109.936 18.952 108.928 18.968 107.984 19V18.52L117.152 2.56H113.168C112.24 2.56 111.488 2.704 110.912 2.992C110.336 3.28 109.896 3.76 109.592 4.432C109.288 5.104 109.072 6.024 108.944 7.192H108.392C108.424 6.952 108.44 6.664 108.44 6.328C108.456 5.992 108.464 5.64 108.464 5.272C108.464 4.952 108.448 4.488 108.416 3.88C108.4 3.272 108.36 2.648 108.296 2.008C109.16 2.04 110.128 2.064 111.2 2.08C112.272 2.08 113.232 2.08 114.08 2.08C115.056 2.08 116.096 2.08 117.2 2.08C118.304 2.064 119.32 2.04 120.248 2.008ZM129.432 1.912L135.288 16.984C135.512 17.576 135.768 17.976 136.056 18.184C136.36 18.392 136.64 18.504 136.896 18.52V19C136.512 18.968 136.056 18.952 135.528 18.952C135.016 18.936 134.496 18.928 133.968 18.928C133.296 18.928 132.672 18.936 132.096 18.952C131.52 18.952 131.056 18.968 130.704 19V18.52C131.52 18.488 132.032 18.352 132.24 18.112C132.464 17.856 132.416 17.32 132.096 16.504L127.776 4.84L128.16 4.408L124.176 14.824C123.792 15.784 123.608 16.528 123.624 17.056C123.64 17.584 123.824 17.96 124.176 18.184C124.544 18.392 125.064 18.504 125.736 18.52V19C125.256 18.968 124.768 18.952 124.272 18.952C123.792 18.936 123.336 18.928 122.904 18.928C122.52 18.928 122.176 18.936 121.872 18.952C121.584 18.952 121.32 18.968 121.08 19V18.52C121.416 18.44 121.752 18.24 122.088 17.92C122.424 17.6 122.744 17.056 123.048 16.288L128.616 1.912C128.744 1.912 128.88 1.912 129.024 1.912C129.168 1.912 129.304 1.912 129.432 1.912ZM131.952 12.088V12.568H124.8L125.04 12.088H131.952Z" fill="#040804"/>
</svg>
